<?xml version="1.0" encoding="UTF-8"?>
<!DOCTYPE svg PUBLIC "-//W3C//DTD SVG 1.1//EN" "http://www.w3.org/Graphics/SVG/1.1/DTD/svg11.dtd">
<svg version="1.1" xmlns="http://www.w3.org/2000/svg" xmlns:xlink="http://www.w3.org/1999/xlink" x="0" y="0" width="400" height="400" viewBox="0, 0, 400, 400">
  <g id="レイヤー_1">
    <path d="M236,20 L236,60.696 C248.123,63.655 259.586,68.706 270.597,74.492 L299.823,45.265 L350.735,96.177 L322.528,124.383 C330.202,136.606 335.825,150.036 339.417,164 L380,164 L380,236 L339.417,236 C336.077,248.989 331.016,261.648 324.04,273.128 L350.735,299.823 L299.823,350.735 L273.128,324.04 C261.606,330.98 249.012,336.07 236,339.417 L236,380 L164,380 L164,339.417 C149.956,336 136.702,330.013 124.384,322.528 L96.177,350.735 L45.265,299.823 L74.492,270.597 C68.299,259.756 63.69,248.08 60.583,236 L20,236 L20,164 L60.582,164 C63.923,151.011 68.985,138.352 75.96,126.872 L45.265,96.177 L96.177,45.265 L126.872,75.96 C138.329,68.787 151.001,64.11 164,60.657 L164,20 L236,20 z M200,104 C146.981,104 104,146.981 104,200 C104,253.019 146.981,296 200,296 C253.019,296 296,253.019 296,200 C296,146.981 253.019,104 200,104 z" fill="#FFFFFF"/>
    <path d="M200,260 C166.863,260 140,233.137 140,200 C140,166.863 166.863,140 200,140 C233.137,140 260,166.863 260,200 C260,233.137 233.137,260 200,260 z" fill="#FFFFFF"/>
  </g>
</svg>
