<?xml version="1.0" encoding="UTF-8"?>
<!DOCTYPE svg PUBLIC "-//W3C//DTD SVG 1.1//EN" "http://www.w3.org/Graphics/SVG/1.1/DTD/svg11.dtd">
<svg version="1.1" xmlns="http://www.w3.org/2000/svg" xmlns:xlink="http://www.w3.org/1999/xlink" x="0" y="0" width="500" height="500" viewBox="0, 0, 500, 500">
  <defs>
    <linearGradient id="Gradient_1" gradientUnits="userSpaceOnUse" x1="248.966" y1="0" x2="248.966" y2="398.806">
      <stop offset="0" stop-color="#00D3FF"/>
      <stop offset="1" stop-color="#007BFF"/>
    </linearGradient>
    <linearGradient id="Gradient_2" gradientUnits="userSpaceOnUse" x1="250" y1="-0" x2="250" y2="500">
      <stop offset="0" stop-color="#FFFFFF"/>
      <stop offset="0" stop-color="#D5F8FF"/>
      <stop offset="1" stop-color="#41DEFF"/>
    </linearGradient>
    <linearGradient id="Gradient_3" gradientUnits="userSpaceOnUse" x1="250" y1="-0" x2="250" y2="500">
      <stop offset="0" stop-color="#00A6FF"/>
      <stop offset="0.265" stop-color="#74D1F4"/>
      <stop offset="0.509" stop-color="#ABF8FF"/>
      <stop offset="0.822" stop-color="#FFF16A"/>
    </linearGradient>
    <linearGradient id="Gradient_4" gradientUnits="userSpaceOnUse" x1="727.501" y1="508" x2="727.501" y2="508">
      <stop offset="0" stop-color="#00A6FF"/>
      <stop offset="0.265" stop-color="#74D1F4"/>
      <stop offset="0.509" stop-color="#ABF8FF"/>
      <stop offset="0.822" stop-color="#FFF16A"/>
    </linearGradient>
    <clipPath id="Clip_1">
      <path d="M-6,-6 L506,-6 L506,506 L-6,506 z M65.792,0 L45,-0 C20.147,-0 -0,20.147 0,45 L0,72 L252.024,254.018 L252.024,254.018 L0,195.08 L0,310.791 L252.024,254.018 L0,438.788 L-0,455 C-0,479.853 20.147,500 45,500 L74.37,500 L252.024,254.018 L192.53,500 L310.929,500 L252.024,254.018 L432.364,500 L455,500 C479.853,500 500,479.853 500,455 L500,433.112 L252.024,254.018 L500,310.336 L500,195.171 L252.024,254.018 L500,72.215 L500,45 C500,20.147 479.853,-0 455,0 L435.482,0 L252.024,254.018 L312.781,0 L192.912,0 L252.024,254.018 L65.792,0 z"/>
    </clipPath>
    <filter id="Shadow_2">
      <feGaussianBlur in="SourceAlpha" stdDeviation="2.5"/>
      <feOffset dx="0" dy="0" result="offsetblur"/>
      <feFlood flood-color="#FFFFFF"/>
      <feComposite in2="offsetblur" operator="in"/>
    </filter>
    <filter id="Shadow_3">
      <feGaussianBlur in="SourceAlpha" stdDeviation="13.5"/>
      <feOffset dx="0" dy="2" result="offsetblur"/>
      <feFlood flood-color="#000000"/>
      <feComposite in2="offsetblur" operator="in"/>
    </filter>
    <filter id="Shadow_4">
      <feGaussianBlur in="SourceAlpha" stdDeviation="0.75"/>
      <feOffset dx="-1.5" dy="0" result="offsetblur"/>
      <feFlood flood-color="#000000"/>
      <feComposite in2="offsetblur" operator="in"/>
    </filter>
    <filter id="Shadow_5">
      <feGaussianBlur in="SourceAlpha" stdDeviation="2.5"/>
      <feOffset dx="0" dy="0" result="offsetblur"/>
      <feFlood flood-color="#000000"/>
      <feComposite in2="offsetblur" operator="in"/>
    </filter>
    <filter id="Shadow_6">
      <feGaussianBlur in="SourceAlpha" stdDeviation="5.25"/>
      <feOffset dx="-2.5" dy="0" result="offsetblur"/>
      <feFlood flood-color="#000000"/>
      <feComposite in2="offsetblur" operator="in"/>
    </filter>
    <filter id="Shadow_7">
      <feGaussianBlur in="SourceAlpha" stdDeviation="5.25"/>
      <feOffset dx="-2.5" dy="0" result="offsetblur"/>
      <feFlood flood-color="#000000"/>
      <feComposite in2="offsetblur" operator="in"/>
    </filter>
    <filter id="Shadow_8">
      <feGaussianBlur in="SourceAlpha" stdDeviation="0.75"/>
      <feOffset dx="-1.5" dy="0" result="offsetblur"/>
      <feFlood flood-color="#000000"/>
      <feComposite in2="offsetblur" operator="in"/>
    </filter>
    <filter id="Shadow_9">
      <feGaussianBlur in="SourceAlpha" stdDeviation="5.25"/>
      <feOffset dx="-2.5" dy="0" result="offsetblur"/>
      <feFlood flood-color="#000000"/>
      <feComposite in2="offsetblur" operator="in"/>
    </filter>
    <clipPath id="Clip_10">
      <path d="M208.183,156.796 C218.002,156.968 225.82,165.223 225.645,175.235 C225.47,185.247 217.369,193.225 207.55,193.053 C197.732,192.882 189.914,184.626 190.089,174.614 C190.263,164.603 198.365,156.625 208.183,156.796 z"/>
    </clipPath>
    <filter id="InnerShadow_11">
      <feGaussianBlur in="SourceAlpha" stdDeviation="4"/>
      <feOffset dx="0" dy="6.5" result="offsetblur"/>
      <feFlood flood-color="#000000"/>
      <feComposite in2="offsetblur" operator="in"/>
    </filter>
    <clipPath id="Clip_12">
      <path d="M341.488,145.207 C350.685,145.367 358.014,152.804 357.856,161.817 C357.699,170.831 350.116,178.007 340.918,177.847 C331.721,177.686 324.393,170.249 324.55,161.236 C324.707,152.223 332.291,145.046 341.488,145.207 z"/>
    </clipPath>
    <filter id="InnerShadow_13">
      <feGaussianBlur in="SourceAlpha" stdDeviation="4"/>
      <feOffset dx="0" dy="6.5" result="offsetblur"/>
      <feFlood flood-color="#000000"/>
      <feComposite in2="offsetblur" operator="in"/>
    </filter>
    <clipPath id="Clip_14">
      <path d="M309.805,203.977 C312.003,203.758 313.962,205.363 314.181,207.561 C314.399,209.759 312.794,211.719 310.596,211.937 L255.565,217.409 C253.366,217.627 251.407,216.022 251.189,213.824 C250.97,211.626 252.575,209.667 254.773,209.448 L309.805,203.977 z"/>
    </clipPath>
    <filter id="InnerShadow_15">
      <feGaussianBlur in="SourceAlpha" stdDeviation="4"/>
      <feOffset dx="0" dy="6.5" result="offsetblur"/>
      <feFlood flood-color="#000000"/>
      <feComposite in2="offsetblur" operator="in"/>
    </filter>
    <clipPath id="Clip_16">
      <path d="M320.934,141.204 L361.859,141.204 L361.859,181.47 L320.934,181.47 z M341.678,145.207 C332.588,145.048 325.092,152.141 324.937,161.05 C324.781,169.958 332.025,177.309 341.115,177.468 C350.205,177.626 357.701,170.533 357.856,161.624 C358.012,152.716 350.769,145.365 341.678,145.207 z"/>
    </clipPath>
    <filter id="Shadow_17">
      <feGaussianBlur in="SourceAlpha" stdDeviation="1.5"/>
      <feOffset dx="0" dy="0" result="offsetblur"/>
      <feFlood flood-color="#FFFBC5"/>
      <feComposite in2="offsetblur" operator="in"/>
    </filter>
    <clipPath id="Clip_18">
      <path d="M341.678,145.207 C350.769,145.365 358.012,152.716 357.856,161.624 C357.701,170.533 350.205,177.626 341.115,177.468 C332.025,177.309 324.781,169.958 324.937,161.05 C325.092,152.141 332.588,145.048 341.678,145.207 z"/>
    </clipPath>
    <filter id="Shadow_19">
      <feGaussianBlur in="SourceAlpha" stdDeviation="0.75"/>
      <feOffset dx="0" dy="0" result="offsetblur"/>
      <feFlood flood-color="#F7FFA0"/>
      <feComposite in2="offsetblur" operator="in"/>
    </filter>
    <clipPath id="Clip_20">
      <path d="M188.034,152.659 L231.183,152.659 L231.183,196.5 L188.034,196.5 z M209.921,156.662 C200.217,156.492 192.21,164.377 192.037,174.273 C191.864,184.169 199.591,192.328 209.296,192.498 C219,192.667 227.008,184.782 227.18,174.886 C227.353,164.991 219.626,156.831 209.921,156.662 z"/>
    </clipPath>
    <filter id="Shadow_21">
      <feGaussianBlur in="SourceAlpha" stdDeviation="1.5"/>
      <feOffset dx="0" dy="0" result="offsetblur"/>
      <feFlood flood-color="#FFFBC5"/>
      <feComposite in2="offsetblur" operator="in"/>
    </filter>
    <clipPath id="Clip_22">
      <path d="M209.921,156.662 C219.626,156.831 227.353,164.991 227.18,174.886 C227.008,184.782 219,192.667 209.296,192.498 C199.591,192.328 191.864,184.169 192.037,174.273 C192.21,164.377 200.217,156.492 209.921,156.662 z"/>
    </clipPath>
    <filter id="Shadow_23">
      <feGaussianBlur in="SourceAlpha" stdDeviation="0.75"/>
      <feOffset dx="0" dy="0" result="offsetblur"/>
      <feFlood flood-color="#F7FFA0"/>
      <feComposite in2="offsetblur" operator="in"/>
    </filter>
    <clipPath id="Clip_24">
      <path d="M208.183,156.804 C218.002,156.975 225.82,165.23 225.645,175.242 C225.47,185.254 217.369,193.232 207.55,193.06 C197.732,192.889 189.914,184.634 190.089,174.622 C190.263,164.61 198.365,156.632 208.183,156.804 z"/>
    </clipPath>
    <filter id="InnerShadow_25">
      <feGaussianBlur in="SourceAlpha" stdDeviation="4"/>
      <feOffset dx="0" dy="6.5" result="offsetblur"/>
      <feFlood flood-color="#000000"/>
      <feComposite in2="offsetblur" operator="in"/>
    </filter>
    <clipPath id="Clip_26">
      <path d="M341.074,145.207 C350.5,145.371 358.008,153.159 357.843,162.601 C357.678,172.044 349.903,179.565 340.477,179.4 C331.051,179.236 323.544,171.448 323.708,162.006 C323.873,152.563 331.648,145.042 341.074,145.207 z"/>
    </clipPath>
    <filter id="InnerShadow_27">
      <feGaussianBlur in="SourceAlpha" stdDeviation="4"/>
      <feOffset dx="0" dy="6.5" result="offsetblur"/>
      <feFlood flood-color="#000000"/>
      <feComposite in2="offsetblur" operator="in"/>
    </filter>
    <clipPath id="Clip_28">
      <path d="M309.805,203.977 C312.003,203.758 313.962,205.363 314.181,207.561 C314.399,209.759 312.794,211.719 310.596,211.937 L255.565,217.409 C253.366,217.627 251.407,216.022 251.189,213.824 C250.97,211.626 252.575,209.667 254.773,209.448 L309.805,203.977 z"/>
    </clipPath>
    <filter id="InnerShadow_29">
      <feGaussianBlur in="SourceAlpha" stdDeviation="4"/>
      <feOffset dx="0" dy="6.5" result="offsetblur"/>
      <feFlood flood-color="#000000"/>
      <feComposite in2="offsetblur" operator="in"/>
    </filter>
  </defs>
  <g id="Layer_3" display="none">
    <path d="M497.966,0 L497.966,0.811 L498.966,0.811 L498.966,398.806 L-1.034,398.806 L-1.034,0 L497.966,0 z" fill="url(#Gradient_1)"/>
    <path d="M65.792,-0 L252.024,254.018 L192.912,-0 L312.781,-0 L252.024,254.018 L435.482,-0 L500,-0 L500,72.215 L252.024,254.018 L500,195.171 L500,310.336 L252.024,254.018 L500,433.112 L500,500 L432.364,500 L252.024,254.018 L310.929,500 L192.53,500 L252.024,254.018 L74.37,500 L-0,500 L-0,438.788 L252.024,254.018 L-0,310.791 L-0,195.08 L252.024,254.018 L252.024,254.018 L-0,72 L-0,-0 L65.792,-0 z M500,-0 L499,-0 L499,1 L500,1 L500,-0 z" fill="url(#Gradient_2)"/>
    <path d="M412.809,1072.557 L412.809,1572.557 L-87.191,1572.557 L-87.191,1072.557 L412.809,1072.557 z M412.809,1072.557 L411.809,1072.557 L411.809,1073.557 L412.809,1073.557 L412.809,1072.557 z" fill="#003567" fill-opacity="0.088"/>
    <path d="M499,0 L500,0 L500,1 L499,1 z" fill="#FFFFFF" id="1px透過ピクセル" display="none"/>
  </g>
  <g id="Layer_4">
    <path d="M463.208,0 C484.241,4.045 498.471,23.108 499,44 L499,454 C499,478.853 478.853,499 454,499 L44,499 C22.959,498.908 4.229,483.898 0,463.208 L0,34.792 C3.39,17.469 17.577,3.519 34.792,0 L463.208,0 z" fill="url(#Gradient_3)"/>
    <path d="M727,508 L728,508 L728,508 L727,508 z" fill="url(#Gradient_4)"/>
    <g>
      <path d="M65.792,0 L252.024,254.018 L192.912,0 L312.781,0 L252.024,254.018 L435.482,0 L455,0 C479.853,-0 500,20.147 500,45 L500,72.215 L252.024,254.018 L500,195.171 L500,310.336 L252.024,254.018 L500,433.112 L500,455 C500,479.853 479.853,500 455,500 L432.364,500 L252.024,254.018 L310.929,500 L192.53,500 L252.024,254.018 L74.37,500 L45,500 C20.147,500 -0,479.853 -0,455 L0,438.788 L252.024,254.018 L0,310.791 L0,195.08 L252.024,254.018 L252.024,254.018 L0,72 L0,45 C-0,20.147 20.147,-0 45,-0 L65.792,0 z" fill="#FFFFFF" fill-opacity="0.435"/>
      <g>
        <path d="M65.792,0 L252.024,254.018 L192.912,0 L312.781,0 L252.024,254.018 L435.482,0 L455,0 C479.853,-0 500,20.147 500,45 L500,72.215 L252.024,254.018 L500,195.171 L500,310.336 L252.024,254.018 L500,433.112 L500,455 C500,479.853 479.853,500 455,500 L432.364,500 L252.024,254.018 L310.929,500 L192.53,500 L252.024,254.018 L74.37,500 L45,500 C20.147,500 -0,479.853 -0,455 L0,438.788 L252.024,254.018 L0,310.791 L0,195.08 L252.024,254.018 L252.024,254.018 L0,72 L0,45 C-0,20.147 20.147,-0 45,-0 L65.792,0 z" fill="rgba(0,0,0,0.287)" clip-path="url(#Clip_1)" filter="url(#Shadow_2)"/>
        <path d="M64.784,0.739 L251.016,254.757 C251.82,255.854 253.55,255.059 253.241,253.734 L194.129,-0.283 L192.912,1.25 L312.781,1.25 L311.565,-0.291 L250.808,253.727 C250.49,255.059 252.236,255.86 253.037,254.75 L436.495,0.732 L435.482,1.25 L455,1.25 C479.162,1.25 498.75,20.838 498.75,45 L498.75,72.215 L499.261,71.207 L251.285,253.01 C250.186,253.816 250.986,255.549 252.313,255.234 L500.289,196.387 L498.75,195.171 L498.75,310.336 L500.277,309.117 L252.301,252.799 C250.973,252.497 250.189,254.234 251.292,255.031 L499.268,434.125 L498.75,433.112 L498.75,455 C498.75,479.162 479.162,498.75 455,498.75 L432.364,498.75 L433.372,499.261 L253.032,253.279 C252.225,252.178 250.491,252.982 250.808,254.309 L309.713,500.291 L310.929,498.75 L192.53,498.75 L193.745,500.294 L253.239,254.312 C253.561,252.979 251.813,252.175 251.011,253.286 L73.356,499.268 L74.37,498.75 L45,498.75 C20.838,498.75 1.25,479.162 1.25,455 L1.25,438.788 L0.739,439.796 L252.763,255.026 C253.856,254.225 253.071,252.501 251.749,252.798 L-0.275,309.572 L1.25,310.791 L1.25,195.08 L-0.285,196.297 L251.739,255.235 C251.832,255.257 251.928,255.268 252.024,255.268 L252.024,255.268 C253.237,255.268 253.739,253.714 252.756,253.004 L0.732,70.987 L1.25,72 L1.25,45 C1.25,20.838 20.838,1.25 45,1.25 L65.792,1.25 L64.784,0.739 z M66.8,-0.739 C66.565,-1.06 66.19,-1.25 65.792,-1.25 L45,-1.25 C19.457,-1.25 -1.25,19.457 -1.25,45 L-1.25,72 C-1.25,72.401 -1.057,72.778 -0.732,73.013 L251.292,255.031 L252.024,254.018 L252.024,252.768 L252.024,252.768 L252.024,254.018 L252.308,252.801 L0.285,193.863 C-0.5,193.68 -1.25,194.275 -1.25,195.08 L-1.25,310.791 C-1.25,311.592 -0.507,312.187 0.275,312.011 L252.299,255.237 L251.285,253.01 L-0.739,437.78 C-1.06,438.015 -1.25,438.39 -1.25,438.788 L-1.25,455 C-1.25,480.543 19.457,501.25 45,501.25 L74.37,501.25 C74.771,501.25 75.148,501.057 75.383,500.732 L253.037,254.75 L250.809,253.724 L191.315,499.706 C191.125,500.493 191.721,501.25 192.53,501.25 L310.929,501.25 C311.737,501.25 312.333,500.495 312.145,499.709 L253.24,253.727 L251.016,254.757 L431.356,500.739 C431.592,501.06 431.966,501.25 432.364,501.25 L455,501.25 C480.543,501.25 501.25,480.543 501.25,455 L501.25,433.112 C501.25,432.711 501.057,432.334 500.732,432.099 L252.756,253.004 L251.747,255.237 L499.723,311.555 C500.505,311.733 501.25,311.138 501.25,310.336 L501.25,195.171 C501.25,194.364 500.497,193.768 499.711,193.955 L251.735,252.802 L252.763,255.026 L500.739,73.223 C501.06,72.988 501.25,72.614 501.25,72.215 L501.25,45 C501.25,19.457 480.543,-1.25 455,-1.25 L435.482,-1.25 C435.081,-1.25 434.704,-1.057 434.469,-0.732 L251.011,253.286 L253.24,254.309 L313.997,0.291 C314.185,-0.495 313.589,-1.25 312.781,-1.25 L192.912,-1.25 C192.107,-1.25 191.512,-0.501 191.695,0.283 L250.806,254.301 L253.032,253.279 L66.8,-0.739 z" fill="rgba(0,0,0,0.287)" clip-path="url(#Clip_1)" filter="url(#Shadow_2)"/>
      </g>
    </g>
  </g>
  <g id="背景">
    <g id="Shape「">
      <path d="M248.681,22.005 L254.205,22.023 C254.299,22.024 254.393,22.025 254.486,22.027 C313.733,23.298 368.482,48.316 409.961,91.104 C445.848,128.944 471.624,178.392 477.84,230.596 L511.015,226.88 C524.44,225.376 533.229,240.569 525.234,251.457 L477.518,316.444 L468.514,507.891 C468.148,515.67 462.067,521.97 454.306,522.611 L341.199,531.946 L314.826,534.627 C313.083,534.713 313.741,534.764 312.849,534.67 L192.128,546.746 C190.814,546.878 189.489,546.841 188.184,546.636 L43.534,523.952 C36.289,522.815 30.832,516.757 30.456,509.434 L22.152,347.692 C20.62,345.889 19.088,344.086 17.556,342.283 C13.158,337.107 7.161,330.05 -0.035,321.582 C-0.035,321.581 -0.035,321.581 -0.035,321.581 C-5.632,314.994 -11.628,307.937 -17.625,300.88 C-21.023,296.881 -21.023,296.881 -23.422,294.058 C-25.221,291.941 -25.221,291.941 -25.62,291.471 C-33.881,281.749 -27.516,266.768 -14.784,265.965 L20.935,263.711 C24.031,204.497 45.94,147.32 83.929,101.779 C125.342,53.292 182.59,24.589 248.021,22.017 C248.241,22.008 248.461,22.005 248.681,22.005 z" filter="url(#Shadow_3)" fill="rgba(0,0,0,0.48)"/>
      <path d="M248.63,37.505 L254.154,37.523 C368.29,39.972 455.842,136.656 464.103,247.732 L512.741,242.284 L462.255,311.042 L453.031,507.163 L339.773,516.512 L313.259,519.206 L313.249,519.053 L190.586,531.323 L45.936,508.639 L37.363,341.655 C37.363,341.656 -13.809,281.434 -13.809,281.434 L35.291,278.337 L35.971,279.312 L35.991,273.754 C38.849,152 121.518,42.501 248.63,37.505 z" fill="#FFFFFF" fill-opacity="0.157"/>
      <path d="M248.63,37.505 L254.154,37.523 C368.29,39.972 455.842,136.656 464.103,247.732 L512.741,242.284 L462.255,311.042 L453.031,507.163 L339.773,516.512 L313.259,519.206 L313.249,519.053 L190.586,531.323 L45.936,508.639 L37.363,341.655 C37.363,341.656 -13.809,281.434 -13.809,281.434 L35.291,278.337 L35.971,279.312 L35.991,273.754 C38.849,152 121.518,42.501 248.63,37.505 z" fill-opacity="0" stroke="#FFFFFF" stroke-width="31" stroke-linejoin="round"/>
    </g>
    <g>
      <path d="M419.003,242.545 L448.322,249.143 L500.871,243.309 C505.315,242.816 508.224,247.801 505.578,251.374 L448.442,328.508 C445.982,331.829 440.767,331.024 439.443,327.118 L413.003,249.125 C412.25,244.889 414.244,242.942 418.278,242.433 L419.003,242.545 z" filter="url(#Shadow_4)" fill="rgba(0,0,0,0.488)"/>
      <path d="M418.278,242.433 L419.003,242.545 L448.322,249.143 L500.871,243.309 C505.315,242.816 508.224,247.801 505.578,251.374 L448.442,328.508 C445.982,331.829 440.767,331.024 439.443,327.118 L413.003,249.125 C412.111,244.993 414.362,242.632 418.278,242.433 z" fill="#B18700"/>
    </g>
    <g id="つまみ">
      <path d="M248.881,35.915 L254.406,35.933 C372.581,37.996 467.718,141.998 465.405,274.527 C463.091,407.056 364.204,517.927 246.029,515.864 C127.855,513.801 32.478,404.574 34.791,272.045 C37.686,149.951 121.863,40.896 248.881,35.915 z" filter="url(#Shadow_5)" fill="rgba(0,0,0,0.338)"/>
      <path d="M246.029,515.864 C127.855,513.801 32.478,404.574 34.791,272.045 C37.105,139.516 136.232,33.871 254.406,35.934 C372.581,37.996 467.718,141.998 465.405,274.527 C463.091,407.056 364.204,517.927 246.029,515.864 z" fill="#90E200"/>
    </g>
    <g id="影くん">
      <path d="M130.191,270.923 L130.404,270.94 C130.68,271.003 130.538,270.964 130.828,271.062 C131.432,271.095 131.067,271.033 131.882,271.409 C132.735,271.691 132.428,271.488 132.886,271.874 C133.544,272.178 133.109,271.941 134.055,272.784 L183.477,331.124 L183.487,331.123 L462.507,309.452 L452.531,506.662 L190.086,530.822 L190.086,530.822 L46.188,507.048 L37.619,340.142 L37.39,339.882 L36.856,339.28 L36.272,338.623 L35.639,337.913 L34.96,337.154 L34.238,336.348 L33.474,335.497 L32.672,334.605 L31.833,333.674 L30.96,332.705 L30.055,331.703 L29.12,330.668 L28.157,329.603 L27.169,328.511 L26.158,327.395 L25.126,326.256 L23.543,324.511 L21.38,322.128 L19.173,319.699 L16.939,317.242 L14.696,314.778 L12.462,312.325 L10.254,309.901 L8.09,307.527 L6.506,305.79 L5.473,304.658 L4.461,303.548 L3.471,302.464 L2.507,301.407 L1.57,300.38 L0.663,299.387 L-0.212,298.428 L-1.054,297.506 L-1.859,296.625 L-2.626,295.785 L-3.352,294.99 L-4.036,294.242 L-4.675,293.543 L-5.266,292.896 L-5.809,292.302 L-6.299,291.766 L-6.737,291.287 L-7.118,290.871 L-7.441,290.517 L-7.704,290.23 L-7.904,290.011 L-8.04,289.862 L-8.098,289.799 L-8.115,289.78 L-8.117,289.778 C-10.239,287.459 -10.036,283.901 -7.663,281.832 C-6.716,281.005 -5.514,280.508 -4.246,280.418 L129.34,270.925 C129.624,270.935 129.908,270.929 130.192,270.924 z" filter="url(#Shadow_6)" fill="rgba(0,0,0,0.24)"/>
      <path d="M462.507,309.452 L452.531,506.662 L190.086,530.822 L190.086,530.822 L46.188,507.048 L37.619,340.142 L37.39,339.882 L36.856,339.28 L36.272,338.623 L35.639,337.913 L34.96,337.154 L34.238,336.348 L33.474,335.498 L32.672,334.605 L31.833,333.674 L30.96,332.705 L30.055,331.703 L29.12,330.668 L28.157,329.603 L27.169,328.511 L26.158,327.395 L25.126,326.256 L23.543,324.511 L21.38,322.128 L19.173,319.699 L16.939,317.242 L14.696,314.778 L12.462,312.325 L10.254,309.901 L8.09,307.527 L6.506,305.79 L5.473,304.658 L4.461,303.548 L3.471,302.464 L2.507,301.407 L1.57,300.38 L0.663,299.387 L-0.212,298.428 L-1.054,297.506 L-1.859,296.625 L-2.626,295.785 L-3.352,294.99 L-4.036,294.242 L-4.675,293.543 L-5.266,292.896 L-5.809,292.302 L-6.3,291.766 L-6.737,291.287 L-7.118,290.871 L-7.441,290.517 L-7.704,290.23 L-7.904,290.011 L-8.04,289.863 L-8.098,289.799 L-8.115,289.78 L-8.117,289.778 C-10.239,287.459 -10.036,283.901 -7.663,281.832 C-6.716,281.005 -5.514,280.508 -4.246,280.418 L129.34,270.925 C129.624,270.935 129.908,270.929 130.192,270.924 L130.404,270.941 C130.68,271.003 130.538,270.964 130.828,271.062 C131.432,271.095 131.067,271.033 131.882,271.409 C132.735,271.691 132.428,271.488 132.886,271.874 C133.544,272.178 133.109,271.941 134.055,272.784 L183.477,331.124 L183.487,331.123 L462.507,309.452 z" fill="#B3855E"/>
    </g>
    <g id="影くん">
      <path d="M130.191,270.924 L130.404,270.941 C130.68,271.003 130.538,270.964 130.828,271.062 C131.432,271.095 131.067,271.033 131.882,271.41 C132.735,271.691 132.428,271.488 132.886,271.874 C133.544,272.178 133.109,271.941 134.055,272.784 L183.477,331.124 L183.487,331.123 L462.507,309.452 L452.531,506.663 L190.086,530.823 L190.086,530.823 L46.188,507.048 L37.619,340.142 L37.39,339.882 L36.856,339.28 L36.272,338.623 L35.639,337.913 L34.96,337.154 L34.238,336.348 L33.474,335.497 L32.672,334.605 L31.833,333.674 L30.96,332.705 L30.055,331.703 L29.12,330.668 L28.157,329.603 L27.169,328.511 L26.158,327.395 L25.126,326.256 L23.543,324.511 L21.38,322.128 L19.173,319.699 L16.939,317.242 L14.696,314.778 L12.462,312.325 L10.254,309.901 L8.09,307.527 L6.506,305.79 L5.473,304.658 L4.461,303.548 L3.471,302.464 L2.507,301.407 L1.57,300.38 L0.663,299.387 L-0.212,298.428 L-1.054,297.507 L-1.859,296.625 L-2.626,295.785 L-3.352,294.99 L-4.036,294.242 L-4.675,293.543 L-5.266,292.896 L-5.809,292.302 L-6.299,291.766 L-6.737,291.288 L-7.118,290.871 L-7.441,290.517 L-7.704,290.23 L-7.904,290.011 L-8.04,289.863 L-8.098,289.799 L-8.115,289.78 L-8.117,289.778 C-10.239,287.459 -10.036,283.901 -7.663,281.832 C-6.716,281.005 -5.514,280.508 -4.246,280.418 L129.34,270.925 C129.624,270.935 129.908,270.929 130.192,270.924 z" filter="url(#Shadow_7)" fill="rgba(0,0,0,0.24)"/>
      <path d="M462.507,309.452 L452.531,506.663 L190.086,530.823 L190.086,530.823 L46.188,507.048 L37.619,340.142 L37.39,339.882 L36.856,339.28 L36.272,338.623 L35.639,337.913 L34.96,337.154 L34.238,336.348 L33.474,335.498 L32.672,334.605 L31.833,333.674 L30.96,332.705 L30.055,331.703 L29.12,330.668 L28.157,329.603 L27.169,328.511 L26.158,327.395 L25.126,326.256 L23.543,324.511 L21.38,322.128 L19.173,319.699 L16.939,317.242 L14.696,314.778 L12.462,312.325 L10.254,309.901 L8.09,307.527 L6.506,305.79 L5.473,304.658 L4.461,303.548 L3.471,302.464 L2.507,301.407 L1.57,300.381 L0.663,299.387 L-0.212,298.428 L-1.054,297.507 L-1.859,296.625 L-2.626,295.785 L-3.352,294.99 L-4.036,294.242 L-4.675,293.543 L-5.266,292.896 L-5.809,292.302 L-6.3,291.766 L-6.737,291.288 L-7.118,290.871 L-7.441,290.517 L-7.704,290.23 L-7.904,290.011 L-8.04,289.863 L-8.098,289.799 L-8.115,289.781 L-8.117,289.778 C-10.239,287.459 -10.036,283.901 -7.663,281.832 C-6.716,281.005 -5.514,280.508 -4.246,280.418 L129.34,270.925 C129.624,270.935 129.908,270.929 130.192,270.924 L130.404,270.941 C130.68,271.003 130.538,270.964 130.828,271.062 C131.432,271.095 131.067,271.033 131.882,271.41 C132.735,271.691 132.428,271.488 132.886,271.874 C133.544,272.178 133.109,271.941 134.055,272.784 L183.477,331.124 L183.487,331.123 L462.507,309.452 z" fill="#B3855E"/>
    </g>
    <path d="M130.192,270.924 C130.605,270.961 130.392,270.92 130.828,271.063 C131.432,271.096 131.067,271.034 131.882,271.41 C132.735,271.691 132.428,271.488 132.886,271.874 C133.544,272.179 133.109,271.942 134.055,272.785 L184.047,331.797 C186.173,334.113 186.672,333.867 184.303,335.941 C183.333,336.79 182.096,337.292 180.794,337.366 L180.788,337.366 L180.738,337.369 L180.64,337.375 L180.493,337.383 L180.3,337.394 L180.06,337.408 L179.774,337.424 L179.443,337.442 L179.069,337.464 L178.651,337.487 L178.19,337.513 L177.688,337.542 L177.144,337.572 L176.561,337.605 L175.938,337.64 L175.276,337.678 L174.577,337.717 L173.84,337.758 L173.068,337.802 L172.259,337.848 L170.982,337.919 L169.162,338.022 L167.214,338.131 L165.144,338.247 L162.958,338.37 L160.664,338.498 L158.266,338.633 L155.771,338.772 L153.186,338.916 L150.517,339.065 L147.769,339.218 L144.95,339.375 L142.065,339.536 L139.121,339.699 L136.124,339.865 L133.079,340.034 L128.439,340.29 L122.147,340.637 L115.779,340.986 L109.386,341.336 L103.017,341.682 L96.724,342.022 L92.083,342.272 L89.038,342.434 L86.04,342.594 L83.095,342.751 L80.209,342.903 L77.389,343.051 L74.64,343.195 L71.97,343.333 L69.383,343.467 L66.887,343.594 L64.487,343.716 L62.189,343.831 L60.001,343.939 L57.928,344.041 L55.975,344.134 L54.15,344.22 L52.867,344.279 L52.054,344.316 L51.278,344.35 L50.537,344.383 L49.832,344.413 L49.164,344.44 L48.535,344.466 L47.943,344.489 L47.391,344.51 L46.877,344.528 L46.403,344.543 L45.969,344.557 L45.574,344.567 L45.217,344.575 L44.895,344.58 L44.605,344.583 L44.336,344.582 L44.064,344.576 L43.714,344.557 L42.926,344.449 L39.962,342.879 C39.163,341.97 39.568,342.514 38.828,341.195 L38.947,341.512 L39.234,341.987 L39.275,342.051 L39.162,341.918 L38.947,341.664 L38.653,341.323 L38.292,340.908 L37.87,340.426 L37.39,339.882 L36.856,339.28 L36.272,338.623 L35.639,337.913 L34.96,337.154 L34.238,336.348 L33.474,335.498 L32.672,334.606 L31.833,333.674 L30.96,332.706 L30.055,331.703 L29.12,330.668 L28.157,329.603 L27.169,328.511 L26.158,327.395 L25.126,326.256 L23.543,324.511 L21.38,322.128 L19.173,319.699 L16.939,317.243 L14.696,314.778 L12.462,312.325 L10.254,309.901 L8.09,307.527 L6.506,305.79 L5.473,304.658 L4.461,303.548 L3.471,302.464 L2.507,301.407 L1.57,300.381 L0.663,299.387 L-0.212,298.429 L-1.054,297.507 L-1.859,296.626 L-2.626,295.786 L-3.353,294.991 L-4.036,294.243 L-4.675,293.544 L-5.266,292.896 L-5.809,292.303 L-6.3,291.766 L-6.737,291.288 L-7.118,290.871 L-7.441,290.518 L-7.704,290.231 L-7.904,290.012 L-8.04,289.863 L-8.098,289.8 L-8.115,289.781 L-8.117,289.779 C-10.239,287.459 -10.036,283.901 -7.663,281.832 C-6.716,281.006 -5.514,280.509 -4.246,280.419 L129.34,270.926 C129.893,270.934 129.609,270.934 130.192,270.924 z" fill="#865500"/>
    <path d="M46.188,507.049 L190.086,530.823 L183.487,331.123 L37.615,340.065 L46.188,507.049 z" fill="#B3855E" id="左側パーツ"/>
    <path d="M183.487,331.123 L190.086,530.823 L452.531,506.663 L462.507,309.452 L183.487,331.123 z" fill="#E1C39A" id="前面パーツ"/>
    <path d="M303.73,321.894 L342.493,318.835 L350.967,515.892 L312.672,519.534 L303.73,321.894 z" fill="#D8A800" id="前面テープ"/>
    <path d="M89.967,336.723 L114.553,335.152 L122.18,519.534 L97.191,515.479 L89.967,336.723 z" fill="#846300" id="左側テープ"/>
    <path d="M34.75,277.945 L59.577,276.137 L114.553,335.152 C114.553,335.152 89.967,336.723 89.967,336.723 C89.967,336.723 34.75,277.945 34.75,277.945 z" fill="#643D00" id="裏側テープ"/>
  </g>
  <g id="Layer_5" display="none">
    <path d="M0.5,500.5 L0.5,0.5 L250.5,0.5 C112.429,0.5 0.5,112.429 0.5,250.5 C0.5,388.571 112.429,500.5 250.5,500.5 C388.571,500.5 500.5,388.571 500.5,250.5 C500.5,112.429 388.571,0.5 250.5,0.5 L500.5,0.5 L500.5,500.5 L0.5,500.5 z" fill-opacity="0" stroke="#000000" stroke-width="2.5" id="円形" display="none"/>
    <g id="円形" display="none">
      <path d="M0.5,500.5 L0.5,0.5 L250.5,0.5 C112.429,0.5 0.5,112.429 0.5,250.5 C0.5,388.571 112.429,500.5 250.5,500.5 C388.571,500.5 500.5,388.571 500.5,250.5 C500.5,112.429 388.571,0.5 250.5,0.5 L500.5,0.5 L500.5,500.5 L0.5,500.5 z" fill="#000000"/>
      <path d="M0.5,500.5 L0.5,0.5 L250.5,0.5 C112.429,0.5 0.5,112.429 0.5,250.5 C0.5,388.571 112.429,500.5 250.5,500.5 C388.571,500.5 500.5,388.571 500.5,250.5 C500.5,112.429 388.571,0.5 250.5,0.5 L500.5,0.5 L500.5,500.5 L0.5,500.5 z" fill-opacity="0" stroke="#000000" stroke-width="2.5"/>
    </g>
    <path d="M500,-0 L500,500 L250,500 C388.071,500 500,388.071 500,250 C500,111.929 388.071,-0 250,-0 C111.929,-0 -0,111.929 -0,250 C-0,388.071 111.929,500 250,500 L-0,500 L-0,-0 L500,-0 z" fill="#000000" id="円形"/>
    <path d="M602.276,-80.957 L602.276,602.411 L-94.887,602.411 L-94.887,-80.957 L602.276,-80.957 z M500.962,-1.031 L-0.595,-1.031 L-0.595,498.507 L500.962,498.507 L500.962,-1.031 z" fill="#000000"/>
  </g>
  <g id="背景" display="none">
    <g>
      <g>
        <path d="M419.003,242.545 L448.322,249.143 L500.871,243.309 C505.315,242.816 508.224,247.801 505.578,251.374 L448.442,328.508 C445.982,331.829 440.767,331.024 439.443,327.118 L413.003,249.125 C412.25,244.889 414.244,242.942 418.278,242.433 L419.003,242.545 z" filter="url(#Shadow_8)" fill="rgba(0,0,0,0.488)"/>
        <path d="M418.278,242.433 L419.003,242.545 L448.322,249.143 L500.871,243.309 C505.315,242.816 508.224,247.801 505.578,251.374 L448.442,328.508 C445.982,331.829 440.767,331.024 439.443,327.118 L413.003,249.125 C412.111,244.993 414.362,242.632 418.278,242.433 z" fill="#B18700"/>
      </g>
    </g>
    <path d="M34.791,277.837 L91.189,273.263 L96.162,382.843 L39.906,384.853 z" fill="#90E200"/>
    <g id="影くん">
      <path d="M130.191,270.924 L130.404,270.941 C130.68,271.003 130.538,270.964 130.828,271.062 C131.432,271.095 131.067,271.033 131.882,271.41 C132.735,271.691 132.428,271.488 132.886,271.874 C133.544,272.178 133.109,271.941 134.055,272.784 L183.477,331.124 L183.487,331.123 L462.507,309.452 L452.531,506.663 L190.086,530.823 L190.086,530.823 L46.188,507.048 L37.619,340.142 L37.39,339.882 L36.856,339.28 L36.272,338.623 L35.639,337.913 L34.96,337.154 L34.238,336.348 L33.474,335.497 L32.672,334.605 L31.833,333.674 L30.96,332.705 L30.055,331.703 L29.12,330.668 L28.157,329.603 L27.169,328.511 L26.158,327.395 L25.126,326.256 L23.543,324.511 L21.38,322.128 L19.173,319.699 L16.939,317.242 L14.696,314.778 L12.462,312.325 L10.254,309.901 L8.09,307.527 L6.506,305.79 L5.473,304.658 L4.461,303.548 L3.471,302.464 L2.507,301.407 L1.57,300.38 L0.663,299.387 L-0.212,298.428 L-1.054,297.507 L-1.859,296.625 L-2.626,295.785 L-3.352,294.99 L-4.036,294.242 L-4.675,293.543 L-5.266,292.896 L-5.809,292.302 L-6.299,291.766 L-6.737,291.288 L-7.118,290.871 L-7.441,290.517 L-7.704,290.23 L-7.904,290.011 L-8.04,289.863 L-8.098,289.799 L-8.115,289.78 L-8.117,289.778 C-10.239,287.459 -10.036,283.901 -7.663,281.832 C-6.716,281.005 -5.514,280.508 -4.246,280.418 L129.34,270.925 C129.624,270.935 129.908,270.929 130.192,270.924 z" filter="url(#Shadow_9)" fill="rgba(0,0,0,0.24)"/>
      <path d="M462.507,309.452 L452.531,506.663 L190.086,530.823 L190.086,530.823 L46.188,507.048 L37.619,340.142 L37.39,339.882 L36.856,339.28 L36.272,338.623 L35.639,337.913 L34.96,337.154 L34.238,336.348 L33.474,335.498 L32.672,334.605 L31.833,333.674 L30.96,332.705 L30.055,331.703 L29.12,330.668 L28.157,329.603 L27.169,328.511 L26.158,327.395 L25.126,326.256 L23.543,324.511 L21.38,322.128 L19.173,319.699 L16.939,317.242 L14.696,314.778 L12.462,312.325 L10.254,309.901 L8.09,307.527 L6.506,305.79 L5.473,304.658 L4.461,303.548 L3.471,302.464 L2.507,301.407 L1.57,300.381 L0.663,299.387 L-0.212,298.428 L-1.054,297.507 L-1.859,296.625 L-2.626,295.785 L-3.352,294.99 L-4.036,294.242 L-4.675,293.543 L-5.266,292.896 L-5.809,292.302 L-6.3,291.766 L-6.737,291.288 L-7.118,290.871 L-7.441,290.517 L-7.704,290.23 L-7.904,290.011 L-8.04,289.863 L-8.098,289.799 L-8.115,289.781 L-8.117,289.778 C-10.239,287.459 -10.036,283.901 -7.663,281.832 C-6.716,281.005 -5.514,280.508 -4.246,280.418 L129.34,270.925 C129.624,270.935 129.908,270.929 130.192,270.924 L130.404,270.941 C130.68,271.003 130.538,270.964 130.828,271.062 C131.432,271.095 131.067,271.033 131.882,271.41 C132.735,271.691 132.428,271.488 132.886,271.874 C133.544,272.178 133.109,271.941 134.055,272.784 L183.477,331.124 L183.487,331.123 L462.507,309.452 z" fill="#B3855E"/>
    </g>
    <g>
      <g id="左目">
        <path d="M207.55,193.053 C197.732,192.882 189.914,184.626 190.089,174.614 C190.263,164.603 198.365,156.625 208.183,156.796 C218.002,156.968 225.82,165.223 225.645,175.235 C225.47,185.247 217.369,193.225 207.55,193.053 z" fill="#272727"/>
        <path d="M181.086,141.294 L234.648,141.294 L234.648,208.556 L181.086,208.556 z M208.183,156.796 C198.365,156.625 190.263,164.603 190.089,174.614 C189.914,184.626 197.732,192.882 207.55,193.053 C217.369,193.225 225.47,185.247 225.645,175.235 C225.82,165.223 218.002,156.968 208.183,156.796 z" clip-path="url(#Clip_10)" filter="url(#InnerShadow_11)" fill="rgba(0,0,0,1)"/>
      </g>
      <g id="右目">
        <path d="M340.918,177.847 C331.721,177.686 324.393,170.249 324.55,161.236 C324.707,152.223 332.291,145.046 341.488,145.207 C350.685,145.367 358.014,152.804 357.856,161.817 C357.699,170.831 350.116,178.007 340.918,177.847 z" fill="#272727"/>
        <path d="M315.548,129.704 L366.859,129.704 L366.859,193.349 L315.548,193.349 z M341.488,145.207 C332.291,145.046 324.707,152.223 324.55,161.236 C324.393,170.249 331.721,177.686 340.918,177.847 C350.116,178.007 357.699,170.831 357.856,161.817 C358.014,152.804 350.685,145.367 341.488,145.207 z" clip-path="url(#Clip_12)" filter="url(#InnerShadow_13)" fill="rgba(0,0,0,1)"/>
      </g>
      <g display="none">
        <path d="M309.805,203.977 C312.003,203.758 313.962,205.363 314.181,207.561 C314.399,209.759 312.794,211.719 310.596,211.937 L255.565,217.409 C253.366,217.627 251.407,216.022 251.189,213.824 C250.97,211.626 252.575,209.667 254.773,209.448 L309.805,203.977 z" fill="#272727"/>
        <path d="M242.169,188.457 L323.201,188.457 L323.201,232.929 L242.169,232.929 z M309.805,203.977 L254.773,209.448 C252.575,209.667 250.97,211.626 251.189,213.824 C251.407,216.022 253.366,217.627 255.565,217.409 L310.596,211.937 C312.794,211.719 314.399,209.759 314.181,207.561 C313.962,205.363 312.003,203.758 309.805,203.977 z" clip-path="url(#Clip_14)" filter="url(#InnerShadow_15)" fill="rgba(0,0,0,1)"/>
      </g>
    </g>
    <g id="口(Deprecated)" display="none">
      <path d="M247.41,210.565 L248.46,219.663 L318.959,211.772 L317.684,202.722 L247.41,210.565 z" fill="#000000"/>
      <path d="M247.41,210.565 L248.46,219.663 L318.959,211.772 L317.684,202.722 L247.41,210.565 z" fill-opacity="0" stroke="#000000" stroke-width="0.5" stroke-linejoin="round"/>
    </g>
    <g>
      <path d="M130.192,270.924 C130.605,270.961 130.392,270.92 130.828,271.063 C131.432,271.096 131.067,271.034 131.882,271.41 C132.735,271.691 132.428,271.488 132.886,271.874 C133.544,272.179 133.109,271.942 134.055,272.785 L184.047,331.797 C186.173,334.113 186.672,333.867 184.303,335.941 C183.333,336.79 182.096,337.292 180.794,337.366 L180.788,337.366 L180.738,337.369 L180.64,337.375 L180.493,337.383 L180.3,337.394 L180.06,337.408 L179.774,337.424 L179.443,337.442 L179.069,337.464 L178.651,337.487 L178.19,337.513 L177.688,337.542 L177.144,337.572 L176.561,337.605 L175.938,337.64 L175.276,337.678 L174.577,337.717 L173.84,337.758 L173.068,337.802 L172.259,337.848 L170.982,337.919 L169.162,338.022 L167.214,338.131 L165.144,338.247 L162.958,338.37 L160.664,338.498 L158.266,338.633 L155.771,338.772 L153.186,338.916 L150.517,339.065 L147.769,339.218 L144.95,339.375 L142.065,339.536 L139.121,339.699 L136.124,339.865 L133.079,340.034 L128.439,340.29 L122.147,340.637 L115.779,340.986 L109.386,341.336 L103.017,341.682 L96.724,342.022 L92.083,342.272 L89.038,342.434 L86.04,342.594 L83.095,342.751 L80.209,342.903 L77.389,343.051 L74.64,343.195 L71.97,343.333 L69.383,343.467 L66.887,343.594 L64.487,343.716 L62.189,343.831 L60.001,343.939 L57.928,344.041 L55.975,344.134 L54.15,344.22 L52.867,344.279 L52.054,344.316 L51.278,344.35 L50.537,344.383 L49.832,344.413 L49.164,344.44 L48.535,344.466 L47.943,344.489 L47.391,344.51 L46.877,344.528 L46.403,344.543 L45.969,344.557 L45.574,344.567 L45.217,344.575 L44.895,344.58 L44.605,344.583 L44.336,344.582 L44.064,344.576 L43.714,344.557 L42.926,344.449 L39.962,342.879 C39.163,341.97 39.568,342.514 38.828,341.195 L38.947,341.512 L39.234,341.987 L39.275,342.051 L39.162,341.918 L38.947,341.664 L38.653,341.323 L38.292,340.908 L37.87,340.426 L37.39,339.882 L36.856,339.28 L36.272,338.623 L35.639,337.913 L34.96,337.154 L34.238,336.348 L33.474,335.498 L32.672,334.606 L31.833,333.674 L30.96,332.706 L30.055,331.703 L29.12,330.668 L28.157,329.603 L27.169,328.511 L26.158,327.395 L25.126,326.256 L23.543,324.511 L21.38,322.128 L19.173,319.699 L16.939,317.243 L14.696,314.778 L12.462,312.325 L10.254,309.901 L8.09,307.527 L6.506,305.79 L5.473,304.658 L4.461,303.548 L3.471,302.464 L2.507,301.407 L1.57,300.381 L0.663,299.387 L-0.212,298.429 L-1.054,297.507 L-1.859,296.626 L-2.626,295.786 L-3.353,294.991 L-4.036,294.243 L-4.675,293.544 L-5.266,292.896 L-5.809,292.303 L-6.3,291.766 L-6.737,291.288 L-7.118,290.871 L-7.441,290.518 L-7.704,290.231 L-7.904,290.012 L-8.04,289.863 L-8.098,289.8 L-8.115,289.781 L-8.117,289.779 C-10.239,287.459 -10.036,283.901 -7.663,281.832 C-6.716,281.006 -5.514,280.509 -4.246,280.419 L129.34,270.926 C129.893,270.934 129.609,270.934 130.192,270.924 z" fill="#865500"/>
    </g>
    <path d="M46.188,507.049 L190.086,530.823 L183.487,331.123 L37.615,340.065 L46.188,507.049 z" fill="#B3855E" id="左側パーツ"/>
    <path d="M183.487,331.123 L190.086,530.823 L452.531,506.663 L462.507,309.452 L183.487,331.123 z" fill="#E1C39A" id="前面パーツ"/>
    <path d="M303.73,321.894 L342.493,318.835 L350.967,515.892 L312.672,519.534 L303.73,321.894 z" fill="#D8A800" id="前面テープ"/>
    <path d="M89.967,336.723 L114.553,335.152 L122.18,519.534 L97.191,515.479 L89.967,336.723 z" fill="#846300" id="左側テープ"/>
    <path d="M34.75,277.945 L59.577,276.137 L114.553,335.152 C114.553,335.152 89.967,336.723 89.967,336.723 C89.967,336.723 34.75,277.945 34.75,277.945 z" fill="#643D00" id="裏側テープ"/>
    <g id="右目" display="none">
      <path d="M341.115,177.468 C332.025,177.309 324.781,169.958 324.937,161.05 C325.092,152.141 332.588,145.048 341.678,145.207 C350.769,145.365 358.012,152.716 357.856,161.624 C357.701,170.533 350.205,177.626 341.115,177.468 z" fill="#FFF41A"/>
      <g>
        <path d="M341.678,145.207 C350.769,145.365 358.012,152.716 357.856,161.624 C357.701,170.533 350.205,177.626 341.115,177.468 C332.025,177.309 324.781,169.958 324.937,161.05 C325.092,152.141 332.588,145.048 341.678,145.207 z" fill="rgba(0,0,0,1)" clip-path="url(#Clip_16)" filter="url(#Shadow_17)"/>
        <path d="M341.665,145.956 C350.345,146.108 357.255,153.12 357.106,161.611 C356.958,170.102 349.808,176.869 341.128,176.718 C332.448,176.566 325.539,169.554 325.687,161.063 C325.835,152.572 332.985,145.805 341.665,145.956 z M341.691,144.457 C332.19,144.291 324.35,151.711 324.187,161.037 C324.024,170.363 331.601,178.052 341.102,178.218 C350.603,178.383 358.443,170.964 358.606,161.638 C358.769,152.311 351.192,144.623 341.691,144.457 z" fill="rgba(0,0,0,1)" clip-path="url(#Clip_16)" filter="url(#Shadow_17)"/>
      </g>
      <g>
        <path d="M322.434,142.704 L360.359,142.704 L360.359,179.97 L322.434,179.97 z M341.678,145.207 C332.588,145.048 325.092,152.141 324.937,161.05 C324.781,169.958 332.025,177.309 341.115,177.468 C350.205,177.626 357.701,170.533 357.856,161.624 C358.012,152.716 350.769,145.365 341.678,145.207 z" fill="rgba(0,0,0,0.75)" clip-path="url(#Clip_18)" filter="url(#Shadow_19)"/>
        <path d="M322.434,143.079 L360.359,143.079 L359.984,142.704 L359.984,179.97 L360.359,179.595 L322.434,179.595 L322.809,179.97 L322.809,142.704 L322.434,143.079 z M322.434,142.329 C322.227,142.329 322.059,142.497 322.059,142.704 L322.059,179.97 C322.059,180.177 322.227,180.345 322.434,180.345 L360.359,180.345 C360.566,180.345 360.734,180.177 360.734,179.97 L360.734,142.704 C360.734,142.497 360.566,142.329 360.359,142.329 L322.434,142.329 z M341.685,144.832 C332.389,144.669 324.721,151.926 324.562,161.043 C324.403,170.161 331.813,177.68 341.108,177.843 C350.404,178.005 358.072,170.748 358.231,161.631 C358.39,152.514 350.981,144.994 341.685,144.832 z M341.672,145.582 C350.557,145.737 357.633,152.918 357.481,161.618 C357.329,170.318 350.007,177.248 341.122,177.093 C332.237,176.938 325.16,169.756 325.312,161.056 C325.464,152.357 332.787,145.426 341.672,145.582 z" fill="rgba(0,0,0,0.75)" clip-path="url(#Clip_18)" filter="url(#Shadow_19)"/>
      </g>
    </g>
    <g id="左目" display="none">
      <path d="M209.296,192.498 C199.591,192.328 191.864,184.169 192.037,174.273 C192.21,164.377 200.217,156.492 209.921,156.662 C219.626,156.831 227.353,164.991 227.18,174.886 C227.008,184.782 219,192.667 209.296,192.498 z" fill="#FFF41A"/>
      <g>
        <path d="M209.921,156.662 C219.626,156.831 227.353,164.991 227.18,174.886 C227.008,184.782 219,192.667 209.296,192.498 C199.591,192.328 191.864,184.169 192.037,174.273 C192.21,164.377 200.217,156.492 209.921,156.662 z" fill="rgba(0,0,0,1)" clip-path="url(#Clip_20)" filter="url(#Shadow_21)"/>
        <path d="M209.908,157.412 C219.195,157.574 226.596,165.388 226.43,174.873 C226.265,184.358 218.596,191.91 209.309,191.748 C200.022,191.586 192.621,183.771 192.787,174.286 C192.952,164.801 200.621,157.25 209.908,157.412 z M209.934,155.912 C199.812,155.735 191.467,163.953 191.287,174.26 C191.107,184.566 199.161,193.071 209.283,193.247 C219.405,193.424 227.75,185.206 227.93,174.899 C228.11,164.593 220.057,156.089 209.934,155.912 z" fill="rgba(0,0,0,1)" clip-path="url(#Clip_20)" filter="url(#Shadow_21)"/>
      </g>
      <g>
        <path d="M189.534,154.159 L229.683,154.159 L229.683,195 L189.534,195 z M209.921,156.662 C200.217,156.492 192.21,164.377 192.037,174.273 C191.864,184.169 199.591,192.328 209.296,192.498 C219,192.667 227.008,184.782 227.18,174.886 C227.353,164.991 219.626,156.831 209.921,156.662 z" fill="rgba(0,0,0,0.75)" clip-path="url(#Clip_22)" filter="url(#Shadow_23)"/>
        <path d="M189.534,154.534 L229.683,154.534 L229.308,154.159 L229.308,195 L229.683,194.625 L189.534,194.625 L189.909,195 L189.909,154.159 L189.534,154.534 z M189.534,153.784 C189.327,153.784 189.159,153.952 189.159,154.159 L189.159,195 C189.159,195.207 189.327,195.375 189.534,195.375 L229.683,195.375 C229.89,195.375 230.058,195.207 230.058,195 L230.058,154.159 C230.058,153.952 229.89,153.784 229.683,153.784 L189.534,153.784 z M209.928,156.287 C200.015,156.114 191.838,164.165 191.662,174.266 C191.486,184.368 199.376,192.699 209.289,192.872 C219.203,193.046 227.379,184.994 227.555,174.893 C227.732,164.792 219.841,156.46 209.928,156.287 z M209.915,157.037 C219.411,157.203 226.975,165.189 226.805,174.88 C226.636,184.57 218.798,192.288 209.302,192.123 C199.807,191.957 192.243,183.97 192.412,174.279 C192.581,164.589 200.419,156.871 209.915,157.037 z" fill="rgba(0,0,0,0.75)" clip-path="url(#Clip_22)" filter="url(#Shadow_23)"/>
      </g>
    </g>
  </g>
  <g id="Layer_5_Copy">
    <g id="左目">
      <path d="M207.55,193.06 C197.732,192.889 189.914,184.634 190.089,174.622 C190.263,164.61 198.365,156.632 208.183,156.804 C218.002,156.975 225.82,165.23 225.645,175.242 C225.47,185.254 217.369,193.232 207.55,193.06 z" fill="#272727"/>
      <path d="M181.086,141.301 L234.648,141.301 L234.648,208.563 L181.086,208.563 z M208.183,156.804 C198.365,156.632 190.263,164.61 190.089,174.622 C189.914,184.634 197.732,192.889 207.55,193.06 C217.369,193.232 225.47,185.254 225.645,175.242 C225.82,165.23 218.002,156.975 208.183,156.804 z" clip-path="url(#Clip_24)" filter="url(#InnerShadow_25)" fill="rgba(0,0,0,1)"/>
    </g>
    <g id="右目">
      <path d="M340.477,179.4 C331.051,179.236 323.544,171.448 323.708,162.006 C323.873,152.563 331.648,145.042 341.074,145.207 C350.5,145.371 358.008,153.159 357.843,162.601 C357.678,172.044 349.903,179.565 340.477,179.4 z" fill="#272727"/>
      <path d="M314.706,129.704 L366.845,129.704 L366.845,194.903 L314.706,194.903 z M341.074,145.207 C331.648,145.042 323.873,152.563 323.708,162.006 C323.544,171.448 331.051,179.236 340.477,179.4 C349.903,179.565 357.678,172.044 357.843,162.601 C358.008,153.159 350.5,145.371 341.074,145.207 z" clip-path="url(#Clip_26)" filter="url(#InnerShadow_27)" fill="rgba(0,0,0,1)"/>
    </g>
    <g display="none">
      <path d="M309.805,203.977 C312.003,203.758 313.962,205.363 314.181,207.561 C314.399,209.759 312.794,211.719 310.596,211.937 L255.565,217.409 C253.366,217.627 251.407,216.022 251.189,213.824 C250.97,211.626 252.575,209.667 254.773,209.448 L309.805,203.977 z" fill="#272727"/>
      <path d="M242.169,188.457 L323.201,188.457 L323.201,232.929 L242.169,232.929 z M309.805,203.977 L254.773,209.448 C252.575,209.667 250.97,211.626 251.189,213.824 C251.407,216.022 253.366,217.627 255.565,217.409 L310.596,211.937 C312.794,211.719 314.399,209.759 314.181,207.561 C313.962,205.363 312.003,203.758 309.805,203.977 z" clip-path="url(#Clip_28)" filter="url(#InnerShadow_29)" fill="rgba(0,0,0,1)"/>
    </g>
    <path d="M256.333,213.81 L311.365,208.339" fill-opacity="0" stroke="#000000" stroke-width="8.5" stroke-linecap="round" stroke-linejoin="round"/>
  </g>
</svg>
